<svg xmlns="http://www.w3.org/2000/svg" width="24" height="24" viewBox="0 0 24 24">
  <g id="iconGoogle" transform="translate(-53 -813)">
    <path id="Vector" d="M18.014,7.284a11.982,11.982,0,0,1-7.72,2.873A12,12,0,0,1,0,4.233L.779.641,4.233,0a6.373,6.373,0,0,0,6.061,4.486,6.237,6.237,0,0,0,3.713-1.209l3.319.506Z" transform="translate(54.706 826.842)" fill="#59c36a"/>
    <path id="Vector-2" data-name="Vector" d="M7.72,4.008,7.031.506,3.713,0A6.237,6.237,0,0,1,0,1.209V6.881A11.982,11.982,0,0,0,7.72,4.008Z" transform="translate(65 830.119)" fill="#00a66c"/>
    <path id="Vector-3" data-name="Vector" d="M5.672,6.075a6.554,6.554,0,0,0,.267,1.842L1.706,12.15A11.882,11.882,0,0,1,0,6.075,11.882,11.882,0,0,1,1.706,0L5.1.585l.836,3.648A6.553,6.553,0,0,0,5.672,6.075Z" transform="translate(53 818.925)" fill="#ffda2d"/>
    <path id="Vector-4" data-name="Vector" d="M12.7,2.813a11.981,11.981,0,0,1-4.28,9.127L4.416,7.931A6.222,6.222,0,0,0,6.37,5.625H.7a.7.7,0,0,1-.7-.7V.7A.7.7,0,0,1,.7,0H11.8a.7.7,0,0,1,.689.577A11.924,11.924,0,0,1,12.7,2.813Z" transform="translate(64.297 822.188)" fill="#4086f4"/>
    <path id="Vector-5" data-name="Vector" d="M5.667,5.625A6.223,6.223,0,0,1,3.713,7.931L7.72,11.939A11.981,11.981,0,0,0,12,2.813,11.92,11.92,0,0,0,11.789.577.7.7,0,0,0,11.1,0H0V5.625Z" transform="translate(65 822.188)" fill="#376aed"/>
    <path id="Vector-6" data-name="Vector" d="M18.211,3.352a.71.71,0,0,1-.2.52L15,6.867a.689.689,0,0,1-.914.07,6.29,6.29,0,0,0-3.8-1.266,6.373,6.373,0,0,0-6.061,4.486L0,5.925A12,12,0,0,1,10.294,0a11.964,11.964,0,0,1,7.664,2.831.739.739,0,0,1,.253.52Z" transform="translate(54.706 813)" fill="#ff7f23"/>
    <path id="Vector-7" data-name="Vector" d="M3.8,6.937a.689.689,0,0,0,.914-.07l3.009-3a.709.709,0,0,0,.2-.52.74.74,0,0,0-.253-.52A11.964,11.964,0,0,0,0,0V5.672A6.29,6.29,0,0,1,3.8,6.937Z" transform="translate(65 813)" fill="#f03800"/>
  </g>
</svg>
