<svg width="18" height="18" viewBox="0 0 18 18" fill="none" xmlns="http://www.w3.org/2000/svg">
<g opacity="0.3">
<path d="M9.0001 13.815C9.81031 13.815 10.4671 13.1582 10.4671 12.348C10.4671 11.5378 9.81031 10.881 9.0001 10.881C8.1899 10.881 7.53311 11.5378 7.53311 12.348C7.53311 13.1582 8.1899 13.815 9.0001 13.815Z" fill="#171321"/>
<path d="M14.652 6.777V5.652C14.652 3.222 14.067 0 9 0C3.933 0 3.348 3.222 3.348 5.652V6.777C0.828 7.092 0 8.37 0 11.511V13.185C0 16.875 1.125 18 4.815 18H13.185C16.875 18 18 16.875 18 13.185V11.511C18 8.37 17.172 7.092 14.652 6.777ZM9 15.066C7.497 15.066 6.282 13.842 6.282 12.348C6.282 10.845 7.506 9.63 9 9.63C10.494 9.63 11.718 10.854 11.718 12.348C11.718 13.851 10.503 15.066 9 15.066ZM4.815 6.696C4.743 6.696 4.68 6.696 4.608 6.696V5.652C4.608 3.015 5.355 1.26 9 1.26C12.645 1.26 13.392 3.015 13.392 5.652V6.705C13.32 6.705 13.257 6.705 13.185 6.705H4.815V6.696Z" fill="#171321"/>
</g>
</svg>
