<svg width="22" height="16" viewBox="0 0 22 16" fill="none" xmlns="http://www.w3.org/2000/svg">
<path d="M7.81857 15.64C7.60067 15.64 7.38277 15.5597 7.21074 15.3877L0.249437 8.42639C-0.0831457 8.09381 -0.0831457 7.54333 0.249437 7.21074L7.21074 0.249437C7.54333 -0.0831457 8.09381 -0.0831457 8.42639 0.249437C8.75897 0.58202 8.75897 1.1325 8.42639 1.46509L2.07291 7.81857L8.42639 14.172C8.75897 14.5046 8.75897 15.0551 8.42639 15.3877C8.26583 15.5597 8.03647 15.64 7.81857 15.64Z" fill="#171321"/>
<path d="M20.3535 8.6787H1.0522C0.581998 8.6787 0.192073 8.28878 0.192073 7.81857C0.192073 7.34837 0.581998 6.95844 1.0522 6.95844H20.3535C20.8237 6.95844 21.2136 7.34837 21.2136 7.81857C21.2136 8.28878 20.8237 8.6787 20.3535 8.6787Z" fill="#171321"/>
</svg>
