<svg width="41" height="57" viewBox="0 0 41 57" fill="none" xmlns="http://www.w3.org/2000/svg">
<g opacity="0.15">
<path d="M20.4973 0C12.868 0 6.66559 6.07083 6.66559 13.5382C6.66559 20.8631 12.5186 26.7915 20.1478 27.048C20.3808 27.0195 20.6137 27.0195 20.7885 27.048C20.8467 27.048 20.8758 27.048 20.9341 27.048C20.9632 27.048 20.9632 27.048 20.9923 27.048C28.4468 26.7915 34.2998 20.8631 34.3289 13.5382C34.3289 6.07083 28.1265 0 20.4973 0Z" fill="#171321"/>
<path d="M35.2926 34.6263C27.1683 29.325 13.919 29.325 5.73651 34.6263C2.03835 37.0489 0 40.3266 0 43.8323C0 47.338 2.03835 50.5872 5.70739 52.9813C9.78409 55.6604 15.142 57 20.5 57C25.858 57 31.2159 55.6604 35.2926 52.9813C38.9616 50.5587 41 47.3095 41 43.7753C40.9709 40.2696 38.9616 37.0204 35.2926 34.6263Z" fill="#171321"/>
</g>
</svg>
